<?xml version="1.0" encoding="utf-8"?>
<!-- Generator: Adobe Illustrator 18.1.0, SVG Export Plug-In . SVG Version: 6.00 Build 0)  -->
<!DOCTYPE svg PUBLIC "-//W3C//DTD SVG 1.0//EN" "http://www.w3.org/TR/2001/REC-SVG-20010904/DTD/svg10.dtd">
<svg version="1.0" id="GLYPHICONS_v1.6" xmlns="http://www.w3.org/2000/svg" xmlns:xlink="http://www.w3.org/1999/xlink" x="0px"
	 y="0px" viewBox="0 0 22 22" style="enable-background:new 0 0 22 22;" xml:space="preserve">
<g id="cogwheel_1_">
	<path fill="#006FB1" d="M22,12l0-0.9l0-0.9L20,9.6l-0.5-1.9L21,6.4L20,4.8l-1.9,0.5l-1.4-1.4L17.3,2l-1.6-0.9l-1.4,1.4L12.5,2L12,0L11,0l-0.9,0
		L9.6,2L7.8,2.5L6.4,1L4.8,1.9l0.5,1.9L3.9,5.2L2,4.7L1.1,6.3l1.4,1.4L2,9.5L0,10L0,11l0,0.9L2,12.4l0.5,1.9L1,15.6l0.9,1.6l1.9-0.5
		l1.4,1.4L4.7,20l1.6,0.9l1.4-1.4L9.5,20l0.5,2l0.9,0l0.9,0l0.5-1.9l1.9-0.5l1.4,1.5l1.6-0.9l-0.5-1.9l1.4-1.4l1.9,0.6l0.9-1.6
		l-1.4-1.4l0.5-1.9L22,12L22,12z M11,15.6c-2.5,0-4.6-2.1-4.6-4.6c0-2.5,2.1-4.6,4.6-4.6c2.5,0,4.6,2.1,4.6,4.6
		C15.6,13.6,13.5,15.6,11,15.6z"/>
</g>
</svg>
