<?xml version="1.0" encoding="utf-8"?>
<!-- Generator: Adobe Illustrator 17.0.0, SVG Export Plug-In . SVG Version: 6.00 Build 0)  -->
<!DOCTYPE svg PUBLIC "-//W3C//DTD SVG 1.1//EN" "http://www.w3.org/Graphics/SVG/1.1/DTD/svg11.dtd">
<svg version="1.1" id="Layer_1" xmlns="http://www.w3.org/2000/svg" xmlns:xlink="http://www.w3.org/1999/xlink" x="0px" y="0px"
	 width="238.947px" height="238.947px" viewBox="0 0 238.947 238.947" enable-background="new 0 0 238.947 238.947"
	 xml:space="preserve">
<path fill="#F0EFEF" d="M0,0v238.947h18.94v-19.705c0,0,0.123-12.189,25.09-23.323c12.067-5.38,29.949-19.181,56.417-24.046
	c-6.798-7.273-11.886-18.677-17.239-32.276c-3.087-7.853-2.569-14.559-2.569-24.098c0-7.011-1.328-18.267,0.404-24.449
	c5.874-20.989,20.76-26.797,38.196-26.797c17.422,0,32.292,5.781,38.177,26.734c1.745,6.201,0.42,17.482,0.42,24.512
	c0,9.517,0.529,16.201-2.55,24.04c-5.312,13.531-10.477,24.951-17.299,32.254c26.68,4.777,44.699,18.682,56.842,24.078
	c25.063,11.139,25.18,23.37,25.18,23.37v19.705h18.94V0H0z"/>
</svg>
